<?xml version="1.0" encoding="UTF-8"?>
<svg version="1.1" viewBox="0 0 768 768" xmlns="http://www.w3.org/2000/svg">
<title>logo</title>
<g fill="none" fill-rule="evenodd">
<g transform="translate(102 25)" fill-rule="nonzero">
<path d="m194.27 106.61c-2.7667-0.013333-5.3833-0.50333-7.85-1.47 2.3733-3.3 3.99-5.3633 4.85-6.19 4.2933-4.1667 8.6433-8.4 13.05-12.7 3.1133-3.0333 6.52-5.7067 10.22-8.02 0.31333-0.2 0.62-0.27 0.92-0.21 0.56667 0.1 0.65 0.35667 0.25 0.77-3.7733 3.94-7.5233 7.8-11.25 11.58-4.1333 4.1867-7.53 9.6-10.19 16.24zm299.54 35.75c0.16 0.17333 0.24667 0.39667 0.26 0.67 0 0.026667-0.006667 0.03-0.02 0.01-0.15333-0.23333-0.26-0.46667-0.32-0.7 0.026666 0.006667 0.053333 0.013334 0.08 0.02zm-271.48 73.18c-0.06 0.033334-0.11667 0.066667-0.17 0.1-0.22-0.33333-0.34333-0.69333-0.37-1.08-0.02-0.27333 0.04-0.29333 0.18-0.06 0.18 0.32 0.3 0.66667 0.36 1.04zm23.17 94.04 17.29 30.54c-0.086667-0.006666-0.17333-0.013333-0.26-0.02-0.04-0.006666-0.076667-0.026666-0.11-0.06-8.38-8.6067-15.803-17.897-22.27-27.87-10.94-16.88-20.39-34.84-26.49-53.77-0.006128-0.02462 0.006813-0.053533 0.028904-0.064579 0.022092-0.011045 0.044968-4.1e-5 0.051096 0.024579 6.0867 13.807 13.513 27.023 22.28 39.65 1.3867 1.9933 2.91 3.9667 4.57 5.92 1.6933 1.9933 3.33 3.8767 4.91 5.65zm-143.76 53.2c-0.51333-7.34-1.0767-11.997-1.69-13.97-0.86667-2.8-1.1933-4.8033-0.98-6.01 8.2867 14.613 13.363 30.53 15.23 47.75 0.046666 0.46-0.15 0.62-0.59 0.48-2.4733-0.78667-4.9567-1.33-7.45-1.63-0.51333-0.06-0.76333-0.35-0.75-0.87 0.27333-8.98-0.98333-17.563-3.77-25.75zm44.18-8.51-5.03 12.14c-0.14238 0.35097-0.49823 0.56933-0.88 0.54l-19.57-1.62c-0.40663-0.037331-0.75-0.3136-0.87-0.7l-4.04-12.65 30.39 2.29zm-10.17 25.54-10.83 5.62c-0.085263 0.042201-0.18518 0.042915-0.27104 0.001938-0.085857-0.040978-0.14814-0.11911-0.16896-0.21194l-2.56-12.6c-0.01863-0.093768 0.007046-0.19089 0.069584-0.2632 0.062538-0.07231 0.15494-0.11172 0.25042-0.1068l15.21 0.71c0.095203 0.005079 0.18277 0.053682 0.23745 0.13179 0.054673 0.078104 0.070366 0.17702 0.042552 0.26821l-1.82 6.26c-0.024519 0.082866-0.082515 0.15174-0.16 0.19zm126.01 101.29c11.147 5.8067 22.7 10.993 34.66 15.56 30.41 11.63 62.76 18.58 95.43 13.33 0.80472-0.12634 1.629 0.11544 2.25 0.66 3.9 3.4467 7.77 7.02 11.61 10.72 0.69333 0.66667 1.4733 1.17 2.34 1.51 2.22 0.87 7.12 3.99 6.23 7.16-0.58 2.06 0.38 4.17 2.26 5.13 0.30711 0.15968 0.68126 0.093899 0.91-0.16 0.84-0.92 2.23-3.02 1.75-4.36-0.19333-0.53333-0.58667-0.88667-1.18-1.06-0.96667-0.28-1.0333-0.70333-0.2-1.27 3.5733-2.4 6.8167-5.4067 9.73-9.02 0.039798-0.051682 0.10333-0.079336 0.16827-0.073247s0.12223 0.045068 0.15173 0.10325c0.053333 0.11333 0.13 0.17 0.23 0.17 0.066666 0 0.09 0.03 0.07 0.09-2.4067 8.7067-4.4533 17.097-6.14 25.17-0.11333 0.53333-0.30667 0.56333-0.58 0.09-1.5333-2.6333-3.1767-5.34-4.93-8.12-3.64-5.77-11.85-9.36-18.31-10.24-10.58-1.46-21.067-3.2167-31.46-5.27-37.22-7.3667-72.09-20.59-104.61-39.67-0.10667-0.066666-0.22333-0.11333-0.35-0.14-0.1-0.013333-0.16-0.076666-0.18-0.19-0.033334-0.15333 0.016666-0.19333 0.15-0.12zm177.88 3.77c0.026666 0.013334 0.053333 0.033334 0.08 0.06 0.073333 0.08 0.09 0.16667 0.05 0.26-3.6333 9.0333-6.9633 18.51-9.99 28.43-0.31 1.05-0.72 1.89-1.56 2.57-3.42 2.78-6.86 5.7667-10.32 8.96-0.66667 0.61333-1.39 0.69-2.17 0.23-6.2-3.6867-12.057-8.1533-17.57-13.4-0.74-0.7-1.7-1.12-2.47-1.82-0.12212-0.11199-0.17457-0.281-0.13731-0.44246s0.15847-0.29039 0.31731-0.33754c2.72-0.80667 5.3833-1.6033 7.99-2.39 14.14-4.2533 25.91-11.597 35.31-22.03 0.13333-0.14667 0.29-0.17667 0.47-0.09zm-276.71-47.17c7.4867 7.3533 15.547 14.083 24.18 20.19 17.7 12.533 36.177 23.613 55.43 33.24 0.32667 0.16667 0.30667 0.23-0.06 0.19-4.9867-0.5-9.9867-0.66-15-0.48-8.22 0.29-16 1.18-19.28 10.1-0.35333 0.94667-0.72667 0.95667-1.12 0.03-4.12-9.5667-9.44-18.75-15.96-27.55-9.6867-13.08-19.16-24.903-28.42-35.47-0.08-0.086666-0.076667-0.17 0.01-0.25l0.01-0.01c0.066666-0.066666 0.13667-0.063333 0.21 0.01zm285.76-5.65c0.33333 0.31333 0.47333 0.72 0.42 1.22-0.59333 5.4-1.22 10.273-1.88 14.62-2.5667 16.927-10.667 29.69-24.3 38.29-5.24 3.3067-10.647 6.1433-16.22 8.51-2.2 0.93333-2.38 0.64-0.54-0.88 4.1867-3.4733 8.38-7.9567 12.58-13.45 10.987-14.387 20.303-30.357 27.95-47.91 0.16242-0.36996 0.49491-0.63759 0.89104-0.71721 0.39612-0.079623 0.8062 0.038745 1.099 0.31721zm-302.45-34.61c11.547 11.673 23.69 21.477 36.43 29.41 29.75 18.52 63.35 33.19 98.38 43.63 24.947 7.44 49.97 11.72 75.07 12.84 13.32 0.6 26.3-0.21 38.94-2.43 0.066666-0.013333 0.10333 0.013334 0.11 0.08 0 0.02 0.003333 0.04 0.01 0.06 0 0.026667-0.016667 0.046667-0.05 0.06-11.553 3.5867-23.013 5.6633-34.38 6.23-21.92 1.1-45.66-3.22-67.05-8.87-32.927-8.7067-64.957-20.797-96.09-36.27-21.887-10.88-42.903-23.657-63.05-38.33 2.8667-3.22 6.76-5.3567 11.68-6.41zm-105.97 79.87-18.92-2.7c0.5-1.8533 1.2167-3.2467 2.15-4.18 8.42-8.46 17.507-16.127 27.26-23 5.8133-4.1 11.96-7.6133 18.44-10.54 2.7067-1.22 5.2467-2.0433 7.62-2.47 2.1867-0.38667 2.53 0.23667 1.03 1.87-2.02 2.2067-3.9467 4.1033-5.78 5.69-1.8667 1.62-3.6767 3.32-5.43 5.1-9.36 9.4933-18.15 19.57-26.37 30.23zm490.15 50.95-10.91 4.56c-1.32-10.827-3.23-21.73-5.73-32.71-0.087383-0.38512 0.10823-0.78051 0.47-0.95 0.10667-0.046666 0.23333 0.026667 0.38 0.22 6.7333 8.7867 11.997 18.413 15.79 28.88zm-453.43-20.67 8.36 5.5c0.11958 0.082844 0.17754 0.22951 0.14691 0.37172s-0.14384 0.25201-0.28691 0.27828c-11.253 1.9533-20.953 6.8033-29.1 14.55-0.51522 0.49258-1.2746 0.63029-1.93 0.35l-15.15-6.44c8.34-10.207 19.053-15.42 32.14-15.64 0.95333-0.013333 1.9333 0.096667 2.94 0.33 0.91333 0.21333 1.8733 0.44667 2.88 0.7zm-3.02 92.69c6.23 3.73 12.3 7.56 18.22 11.6 0.013247 0.01658 0.014585 0.039715 0.0033375 0.057711-0.011248 0.017996-0.03263 0.026931-0.053338 0.022289-19.44-9.5133-39.023-19.78-58.75-30.8-8-4.4733-15.443-9.4767-22.33-15.01-0.90667-0.72-1.7133-1.5333-2.42-2.44-0.26531-0.3385-0.30676-0.80137-0.10583-1.1816 0.20093-0.38026 0.60668-0.60682 1.0358-0.57837 1.8733 0.12667 3.5033 0.64667 4.89 1.56 19.27 12.71 39.05 24.52 59.51 36.77zm379.46 46.87c14.38-15.78 31.49-32.08 47.83-42.72 9.56-6.2267 19.443-11.627 29.65-16.2 1.18-0.52667 1.24-0.42333 0.18 0.31-5.3133 3.7-10.523 7.3233-15.63 10.87-20.95 14.55-42.86 29.75-61.78 47.84-0.08 0.08-0.16 0.08-0.24 0l-0.01-0.01c-0.026667-0.026666-0.026667-0.056666 0-0.09zm-142.29-53.08c-0.17333 0.26667-0.26667 0.46667-0.28 0.6-0.014651 0.14724 0.035371 0.29359 0.13708 0.40106 0.10171 0.10747 0.24509 0.16547 0.39292 0.15894 2.9067-0.15333 5.4233 0.01 7.55 0.49 12.66 2.82 24.81 6.01 37.09 8.47 4.2733 0.86 7.2833 1.6433 9.03 2.35 10.313 4.1667 17.12 11.667 20.42 22.5 0.36667 1.2 0.76667 3.3867 1.2 6.56-9.54 17.253-19.047 34.65-28.52 52.19-2.26 4.18-4.39 8.09-8.73 10.69-10.467 6.2533-21.373 12.907-32.72 19.96-0.30474 0.19181-0.70053 0.16354-0.98-0.07-14.72-12.033-29.35-23.99-43.89-35.87-1.1667-0.95333-2.2567-1.9433-3.27-2.97-0.37642-0.38962-0.54045-0.93764-0.44-1.47 1.04-5.3067 2.0433-10.337 3.01-15.09 0.40667-1.98 1.5733-3.54 3.5-4.68 22.6-13.413 44.73-26.657 66.39-39.73 0.097687-0.061576 0.1665-0.15985 0.19095-0.27271 0.024452-0.11286 0.002486-0.2308-0.060954-0.32729-0.26-0.39333-0.64333-0.72667-1.15-1-16.84-8.9-31.613-16.61-44.32-23.13-1.2733-0.65333-1.1967-0.93 0.23-0.83l15.22 1.07zm-101.67 24.28c0.56667 0.94 1.3233 1.7767 2.27 2.51l-27.26 47.53c-0.13772 0.24026-0.37065 0.41104-0.64121 0.4701-0.27056 0.059065-0.55348 9.03e-4 -0.77879-0.1601l-0.39-0.29c-0.76-0.54667-0.91-1.23-0.45-2.05l27.25-48.01zm-9.65 2.38c0.24264 0.002742 0.46356 0.14041 0.57292 0.35703 0.10936 0.21662 0.088954 0.47612-0.052924 0.67298-0.62 0.82667-0.70667 1.5367-0.26 2.13l-22.12 38.96c-0.24667 0.44-0.54 0.47333-0.88 0.1-4.9-5.46-3.91-10.05-0.61-15.77 3.8533-6.68 7.6367-13.237 11.35-19.67 0.94 0.40667 1.84-0.53667 2.7-2.83 1.4266-3.8202 5.4841-3.9461 8.8549-3.9499l0.44508-9.7e-5z" fill="#005063"/>
<path d="m460.54 429.89 13.12 2.19c0.70076 0.11558 1.2281 0.70101 1.27 1.41 0.79 14.02-0.96 27.7-3.57 41.62-7.37 39.33-20.97 81.45-33.22 121.34-4.4267 14.413-8.0967 30.657-11.01 48.73-0.62 3.85-0.64 8.38-0.56 12.49 0.006666 0.50667-0.20333 0.62333-0.63 0.35-0.98-0.62-1.8267-1.4-2.54-2.34-6.88-9.05-7.62-21.3-6.44-32.54 1.59-15.13 5.76-30.64 10.13-44.99 11.24-36.86 23.21-75.12 29.93-112.91 2.08-11.69 3.13-23.05 2.85-34.77-0.002109-0.17284 0.071687-0.33784 0.20127-0.45002 0.12958-0.11218 0.30144-0.15983 0.46873-0.12998zm-356.42-33.57c19.08 3.47 33.36 16.1 43.84 31.72 16.86 25.12 27.38 56.14 31.56 85.78 0.96667 6.8867 1.69 13.863 2.17 20.93 0.82667 12.187 0.076666 25.08-2.25 38.68-3.41 19.98-11.32 38.43-28.1 49.41-0.84667 0.55333-0.98667 0.41-0.42-0.43 14.14-21.03 18.52-47.39 17.73-72.51-0.74667-23.573-4.8067-46.943-12.18-70.11-4.24-13.32-9.1933-24.96-14.86-34.92-9.67-16.99-26.72-35.55-46.77-35.64-0.47333-0.006666-0.60333-0.22-0.39-0.64 1.7667-3.52 3.47-7.1367 5.11-10.85 1.05-2.37 2.61-1.77 4.56-1.42zm264.02 154.39c2.3196 0 4.2 1.8804 4.2 4.2s-1.8804 4.2-4.2 4.2-4.2-1.8804-4.2-4.2 1.8804-4.2 4.2-4.2zm-128.74-136.45c30.55 13.86 63.03 24.83 95.55 30.36 25.4 4.32 50.66 5.86 74.84-0.31 8.0867-2.0667 14.807-5.6167 20.16-10.65 0.17333-0.16 0.37333-0.27 0.6-0.33 0.61333-0.16 0.75 0.026667 0.41 0.56-1.0867 1.7-2.13 3.3967-3.13 5.09-0.86667 1.46-1.6167 3.0333-2.25 4.72-2.1133 5.6467-6.3733 10.037-12.78 13.17-28.7 14.05-62.84 11.18-93.4 4.41-26.767-5.9333-52.577-14.327-77.43-25.18-4.49-1.96-9.6-7.88-7.05-13.15 1.3733-2.84 2.5967-5.6267 3.67-8.36 0.059474-0.1546 0.18021-0.27773 0.33361-0.34022 0.1534-0.062496 0.32581-0.058796 0.47639 0.010224zm-81.35-79.75c9.1933 9.9933 19.883 19.14 32.07 27.44 41.88 28.513 88.24 48.443 139.08 59.79 13.88 3.0933 27.847 4.8333 41.9 5.22 14.77 0.4 30.43-1.35 43.52-7.81 3.75-1.85 10.47-6.9 9.57-11.78-0.2-1.1067-0.53-2.1467-0.99-3.12-0.11566-0.24285-0.11932-0.52426-0.010027-0.77161s0.32083-0.4364 0.58003-0.51839l7.44-2.29c0.62901-0.18833 1.3102 0.002417 1.75 0.49 8.7 9.8 0.42 19-8.6 23.65-13.38 6.9-28.7 9.78-43.71 10-15.58 0.23333-31.367-1.2833-47.36-4.55-30.98-6.3267-61.117-16.183-90.41-29.57-14.353-6.56-27.7-13.807-40.04-21.74-17.9-11.51-35.02-26.13-45.09-44.21-0.52-0.94-0.42-1.0167 0.3-0.23zm55.45 66.63 9.09 5.28c0.4643 0.26657 0.65037 0.84207 0.43 1.33l-6.81 14.91c-0.117 0.25408-0.33143 0.45031-0.59486 0.5444s-0.55365 0.078079-0.80514-0.044396l-8.4-4.07c-0.48406-0.23827-0.70554-0.80715-0.51-1.31l6.11-16.11c0.10865-0.28413 0.33625-0.50644 0.62286-0.60839 0.2866-0.10195 0.60347-0.073302 0.86714 0.078386zm-11.936-6.1455 6.3142 2.7324c0.13685 0.059222 0.19979 0.21817 0.14056 0.35502l-7.2281 16.703c-0.059222 0.13685-0.21817 0.19978-0.35502 0.14056l-6.3142-2.7324c-0.13685-0.059221-0.19978-0.21817-0.14056-0.35502l7.2281-16.703c0.059221-0.13685 0.21817-0.19978 0.35502-0.14056zm-13.964-9.9345 9.24 6.12c0.29832 0.19806 0.41202 0.58129 0.27 0.91l-6.96 15.98c-0.088958 0.20256-0.26388 0.35469-0.47681 0.4147-0.21294 0.06001-0.44155 0.021601-0.62319-0.1047l-8.35-5.71c-0.28266-0.19083-0.3983-0.55013-0.28-0.87l6.08-16.39c0.080766-0.20938 0.25219-0.3708 0.46605-0.43885s0.44704-0.035364 0.63395 0.088851zm-2.7573 13.094c-0.20718-0.16539-0.5092-0.13151-0.67459 0.075667l-0.024955 0.031261c-0.16539 0.20718-0.13151 0.5092 0.075667 0.67459l4.7985 3.8306c0.20718 0.16539 0.5092 0.13151 0.67459-0.075668l0.024955-0.031261c0.16539-0.20718 0.13151-0.5092-0.075668-0.67459zm-10.293-24.074c3.03 2.92 0.73 7.73-1.37 10.54-1.47 1.96-2.01 4.12-2.65 6.42-0.35333 1.2667-1.0833 1.5433-2.19 0.83l-0.84-0.54c-1.0133-0.65333-1.2933-1.5367-0.84-2.65 1.44-3.56 2.8767-7.1867 4.31-10.88 0.47333-1.2333 1.1133-2.4233 1.92-3.57 0.18629-0.26038 0.47676-0.42667 0.79562-0.45548 0.31885-0.028812 0.63444 0.08272 0.86438 0.30548zm-16.11-14.85 1.63 2.81c0.10764 0.19025 0.11877 0.42025 0.03 0.62l-5.99 13.84c-0.088579 0.20802-0.27345 0.35945-0.49484 0.40532-0.22139 0.045875-0.45121-0.019626-0.61516-0.17532l-1.73-1.63c-0.20788-0.19409-0.27538-0.49584-0.17-0.76l6.1-15.03c0.099579-0.24529 0.33072-0.41198 0.5949-0.42902 0.26418-0.017044 0.51483 0.11856 0.6451 0.34902zm278.95-245.16c4.3 4.7733 8.26 9.58 11.88 14.42 4.94 6.6 9.18 12.65 12.72 18.15 16.78 26.04 27.76 55.45 29.53 86.31 0.39333 6.9333 0.29667 13.547-0.29 19.84-2.8333 30.08-14.43 56.35-34.79 78.81-9.2867 10.24-20.32 19.383-33.1 27.43 7.3667-11.993 11.607-23.723 12.72-35.19 0.87333-9.0333 0.21333-19.743-1.98-32.13-6.21-35.1-24.03-63.5-47.36-89.94-10.34-11.72-21.887-23.963-34.64-36.73-7.76-7.76-15.45-22.14-12.28-33.37 2.28-8.07 10.23-12.61 17.94-15.33 11.6-4.1 23.58-6.18 35.94-6.24 16.393-0.08 30.963 1.2433 43.71 3.97zm-301.32 124.17c0.52 0.56667 1.37 1.9767 2.55 4.23 0.82667 1.5667 1.8267 2.9133 3 4.04 0.99333 2.0933 1.7367 4.4667 2.23 7.12 1.4267 7.6 1.4767 15.317 0.15 23.15-0.64667 3.8067-2.0433 7.1067-4.19 9.9-2.3 3-6.67 4.6-9.74 1.65-7.68-7.42-11.04-22.15-11.48-32.74-0.13333-3.4067-0.23333-6.82-0.3-10.24-0.053334-2.54 0.27-4.6633 0.97-6.37 1.4533-2.9067 2.93-4.48 4.43-4.72 5.08-0.81333 9.2067 0.51333 12.38 3.98zm-0.34 12.96c-1.5-3.24-6.49-9.25-10.38-5.44-6.18 6.05-5.52 14.76-2.6 22.28 1.0333 2.6533 2.9867 4.6967 5.86 6.13 4.7 2.34 8.62-1.97 9.35-6.26 0.98667-5.8067 0.24333-11.377-2.23-16.71zm226.51-45.55c4.6333 0.32 9.16 0.67667 13.58 1.07 1 0.09 1.94 0.87 2.53 1.65 3.7733 4.98 7.5933 11.26 11.46 18.84 6.2267 12.193 10.42 23.277 12.58 33.25 0.026666 0.14-0.02 0.17667-0.14 0.11-0.11333-0.053333-0.15667-0.13-0.13-0.23 0.006666-0.033333 0.003333-0.07-0.01-0.11-3.7-8.8667-8.0667-16.867-13.1-24-7.6733-10.873-16.687-20.847-27.04-29.92-0.56-0.49333-0.47-0.71333 0.27-0.66zm30.34-109.77c0.04 0.013333 0.046666 0.033333 0.02 0.06-0.026667 0.02-0.053334 0.033333-0.08 0.04-0.033334 0-0.066667 0.0033334-0.1 0.01-15.013 2.4-29.123 6.8-42.33 13.2-2.24 1.08-4.6733 2.5933-7.3 4.54-10.713 7.9133-14.503 18.413-11.37 31.5 2.0133 8.4 5.8233 16.003 11.43 22.81 4.98 6.04 11.47 12.1 16.99 18.15 2.72 2.9867 5.3367 5.84 7.85 8.56 0.32667 0.35333 0.25 0.51-0.23 0.47l-20.12-1.71c-0.20278-0.013107-0.39982-0.082243-0.57-0.2-19.58-13.06-62.67-45.45-35.21-72 3.4067-3.2867 6.95-5.9867 10.63-8.1 20.84-11.93 46.25-16.64 70.3-17.34 0.033333-0.0066666 0.063333-0.0033333 0.09 0.01z" fill="#FFA221"/>
<path d="m284.88 523.19c33.207 3.7333 67.747 7.6033 103.62 11.61 7.8333 0.87333 12.6 1.71 14.3 2.51 8.31 3.92 10.75 13.91 11.93 22.62 0.073333 0.52667-0.12 0.65333-0.58 0.38-7.99-4.84-19.05-5.7-28.85-6.45-0.55512-0.041376-1.1032 0.14148-1.5196 0.50693s-0.66536 0.88238-0.69044 1.4331l-0.02 0.39c-0.073334 1.3533 0.56 2.1433 1.9 2.37 6.7 1.11 13.17 1.12 19.6 3.21 3.88 1.26 11.05 3.91 12.52 7.7 1.47 3.82-0.72 10.99-2.29 14.01-4.8 9.1733-14.173 26.547-28.12 52.12-0.43333-3.1733-0.83333-5.36-1.2-6.56-3.3-10.833-10.107-18.333-20.42-22.5-1.7467-0.70667-4.7567-1.49-9.03-2.35-12.28-2.46-24.43-5.65-37.09-8.47-2.1267-0.48-4.6433-0.64333-7.55-0.49-0.14783 0.00653-0.2912-0.051466-0.39292-0.15894-0.10171-0.10747-0.15174-0.25382-0.13708-0.40106 0.013333-0.13333 0.10667-0.33333 0.28-0.6 23.733 1.2733 47.47 2.59 71.21 3.95 5.1 0.29 8.09 0.01 10.48-4.76 3.3733-6.7067 6.9433-13.483 10.71-20.33 1.53-2.79-1.48-4.6-3.89-4.85-38.473-3.9867-77.013-8.2667-115.62-12.84-9.8133-1.16-16.287-1.4733-19.42-0.94-7.3933 1.2533-13.727 4.5033-19 9.75-2.46 2.4333-5.75 7.38-9.87 14.84-6.48 11.74-13.017 23.343-19.61 34.81-1.4 2.45-2.99 4.72-4.39 7.16-0.94667-0.73333-1.7033-1.57-2.27-2.51 13.333-23.84 22.82-41 28.46-51.48 6.3333-11.767 15.99-18.29 28.97-19.57 3.4867-0.34667 8.1667-0.16333 14.04 0.55 24.653 2.9933 48.927 5.65 72.82 7.97 1.32 0.13333 2.06-0.46 2.22-1.78l0.05-0.41c0.2-1.6733-0.53667-2.6033-2.21-2.79-24.647-2.7067-48.617-5.3433-71.91-7.91-5.26-0.58-8.8367-0.86667-10.73-0.86-16.767 0.1-29.187 7.1867-37.26 21.26-1.7333 3.0133-3.4267 6.1167-5.08 9.31-0.084656 0.16333-0.24536 0.27352-0.42823 0.29362-0.18286 0.020095-0.36367-0.052567-0.48177-0.19362l-5.03-6.07c-0.23703-0.29824-0.27627-0.70638-0.1-1.04 5.31-9.85 9.92-20.24 18.16-27.95 12.36-11.567 27-16.397 43.92-14.49zm-88.837 89.461c0.23125 0.002128 0.44211 0.13276 0.54696 0.33887 1.3533 2.6467 2.99 4.8967 4.91 6.75 0.43333 0.42 0.49667 0.89 0.19 1.41l-1.61 2.74c-0.44667-0.59333-0.36-1.3033 0.26-2.13 0.14188-0.19686 0.16229-0.45636 0.052924-0.67298-0.10936-0.21662-0.33028-0.35428-0.57292-0.35702l-0.67078 5.7e-4c-3.3241 0.010743-7.2343 0.21411-8.6292 3.9494-0.86 2.2933-1.76 3.2367-2.7 2.83l7.67-14.53c0.10859-0.20418 0.32179-0.33095 0.55304-0.32887zm5.977-10.261 6.24 7.91c0.088103 0.11283 0.096099 0.26875 0.02 0.39l-2.95 4.51c-0.059036 0.091678-0.15846 0.14948-0.26734 0.15542-0.10888 0.005939-0.214-0.040704-0.28266-0.12542l-5.83-7.21c-0.081464-0.10232-0.097017-0.24229-0.04-0.36l2.54-5.2c0.049904-0.10521 0.15018-0.17756 0.26575-0.19175 0.11557-0.014193 0.23037 0.031746 0.30425 0.12175zm9.8593-17.625c0.11641-0.008029 0.22916 0.042484 0.30067 0.1347l5.83 7.39c0.084148 0.10963 0.095902 0.25852 0.03 0.38l-6.44 11.47c-0.058168 0.10116-0.16292 0.16667-0.27933 0.1747-0.11641 0.008028-0.22917-0.042485-0.30067-0.1347l-5.84-7.39c-0.084149-0.10963-0.095903-0.25852-0.03-0.38l6.45-11.47c0.058168-0.10115 0.16292-0.16667 0.27933-0.1747zm322.03-40.194c0.13946 0.10889 0.22575 0.27218 0.23714 0.44875 0.24667 5.7 0.13333 11.457-0.34 17.27-0.31 3.94-1.26 8.25-4.93 10.34-9.91 5.62-19.84 12.15-28.13 20.1-0.34 0.32667-0.46 0.26-0.36-0.2 2.46-11.27-2.6-23.54-13.02-28.35-0.16072-0.070989-0.26982-0.22412-0.28441-0.39922-0.014591-0.1751 0.067651-0.34417 0.21441-0.44078 13.75-8.98 29.59-15.81 46.12-18.89 0.17406-0.031759 0.3534 0.012362 0.49286 0.12125zm-49.403-94.511c20.747 14.113 34.87 33.133 42.37 57.06 1.98 6.3333 3.59 13.087 4.83 20.26 0.06 0.34667-0.37 0.64-1.29 0.88-3.7933-10.467-9.0567-20.093-15.79-28.88-0.14667-0.19333-0.27333-0.26667-0.38-0.22-0.36177 0.16949-0.55738 0.56488-0.47 0.95 2.5 10.98 4.41 21.883 5.73 32.71-6.54 2.7067-13.33 5.95-20.37 9.73-15.64 8.4067-28.703 19.747-39.19 34.02-0.87333 1.1933-0.96333 1.1367-0.27-0.17 14.11-26.62 20.42-58.95 20.26-88.1-0.07-13.59-0.16-25.51 3.85-37.99 0.042729-0.1424 0.15152-0.25536 0.29337-0.30461 0.14185-0.049253 0.30005-0.029002 0.42663 0.054614zm-475.12 77.65c5.3333 0.94 10.513 1.9433 15.54 3.01 17.24 3.67 34.21 12.07 49.22 22.33 0.17845 0.12058 0.2737 0.33145 0.24621 0.54506-0.027494 0.21361-0.17304 0.39348-0.37621 0.46494-5.6333 1.98-9.6933 5.8733-12.18 11.68-1.29 2.99-0.85 6.4-0.32 9.54 0.093333 0.54667-0.083333 0.65667-0.53 0.33-3.4533-2.5267-7.1633-4.84-11.13-6.94-7.82-4.1333-15.957-8.04-24.41-11.72-4.11-1.78-7.95-4.09-10.1-7.99-3.26-5.93-6.31-13.01-7.41-19.81-0.063736-0.40215 0.069289-0.81057 0.35711-1.0964 0.28782-0.28583 0.69493-0.41383 1.0929-0.3436zm93.22-113.27c22.28 6.84 34.48 28.24 43.86 48.18 0.18 0.38 0.06 0.56-0.36 0.54-12.787-0.57333-21.197 4.6633-25.23 15.71-5.36 14.69-1.5 34.26 3.34 49.29 0.55333 1.7133 0.33 1.82-0.67 0.32-4.1467-6.2733-9.2933-12.143-15.44-17.61-17.307-15.387-37.407-25.93-60.3-31.63-2.4133-0.60667-4.9267-1.25-7.54-1.93 8.22-10.66 17.01-20.737 26.37-30.23 1.7533-1.78 3.5633-3.48 5.43-5.1 1.8333-1.5867 3.76-3.4833 5.78-5.69 1.5-1.6333 1.1567-2.2567-1.03-1.87-2.3733 0.42667-4.9133 1.25-7.62 2.47-6.48 2.9267-12.627 6.44-18.44 10.54-9.7533 6.8733-18.84 14.54-27.26 23-0.93333 0.93333-1.65 2.3267-2.15 4.18l-0.87-0.19c-0.09336-0.019663-0.1718-0.082562-0.21128-0.16942s-0.035292-0.18731 0.01128-0.27058c17.08-29.15 44.46-49.69 76.74-59.67 1.72-0.53333 3.5833-0.49 5.59 0.13zm-73 74.6c16.687 3.5 32.48 9.6833 47.38 18.55-1.0067-0.25333-1.9667-0.48667-2.88-0.7-1.0067-0.23333-1.9867-0.34333-2.94-0.33-13.087 0.22-23.8 5.4333-32.14 15.64-6.4133-2.16-12.627-3.9067-18.64-5.24-3.43-0.77-8.24-1.99-9.05-6.12-1.3667-7.02-0.66333-13.287 2.11-18.8 2.78-5.52 11.41-3.99 16.16-3zm520.51-24.9c0.61304 0 1.11 0.49696 1.11 1.11s-0.49696 1.11-1.11 1.11-1.11-0.49696-1.11-1.11 0.49696-1.11 1.11-1.11zm0.61-26.34 0.48 1.48c0.12667 0.39333 0.39 0.65333 0.79 0.78 0.68667 0.22 1.3267 0.49333 1.92 0.82 1.22 0.67333 1.1533 1.1733-0.2 1.5l-1.46 0.36c-0.49061 0.11612-0.8762 0.49785-1 0.99-0.16667 0.70667-0.38333 1.3833-0.65 2.03-0.49333 1.2267-0.88 1.1933-1.16-0.1-0.43-2.05-1.26-3.16-3.54-3.59-0.34-0.06-0.47-0.30667-0.39-0.74 0.048177-0.24962 0.23958-0.44884 0.49-0.51 1.8533-0.40667 2.9633-1.38 3.33-2.92 0.4-1.68 0.86333-1.7133 1.39-0.1zm-44.506-10.162c0.13277-0.5247 0.72218-0.82815 1.3165-0.67776s0.96845 0.69765 0.83568 1.2223c-0.13277 0.5247-0.72218 0.82815-1.3165 0.67777-0.5943-0.15038-0.96845-0.69765-0.83568-1.2223zm54.186-6.8877c1.0383 0 1.88 0.8417 1.88 1.88 0 1.0383-0.8417 1.88-1.88 1.88-1.0383 0-1.88-0.8417-1.88-1.88 0-1.0383 0.8417-1.88 1.88-1.88zm-70.47-17.78c0.49333 0.31333 0.79 0.79333 0.89 1.44 0.10785 0.73322 0.69402 1.303 1.43 1.39l1.25 0.15c0.34667 0.046667 0.55 0.24333 0.61 0.59 0.026666 0.18667-0.023334 0.34333-0.15 0.47-0.24 0.23333-0.51667 0.37667-0.83 0.43-1.5533 0.26667-2.54 1.2767-2.96 3.03-0.053334 0.23333-0.18333 0.41-0.39 0.53-0.16 0.093334-0.29333 0.11333-0.4 0.06-0.12-0.053333-0.18333-0.14667-0.19-0.28-0.046667-2-0.96333-3.1233-2.75-3.37-0.4-0.06-0.63333-0.28667-0.7-0.68-0.026667-0.14667 0.12-0.28 0.44-0.4 0.14667-0.06 0.3-0.10333 0.46-0.13 1.6667-0.26 2.57-1.24 2.71-2.94 0.033333-0.40667 0.22667-0.50333 0.58-0.29zm43.88 5.3317 0.11671 0.004805c0.58781 0.060744 1.0077 0.65776 0.9379 1.3335s-0.60295 1.1742-1.1908 1.1135c-0.58781-0.060745-1.0077-0.65776-0.9379-1.3335s0.60295-1.1742 1.1908-1.1135zm-524.83-0.76171c0.61856 0 1.12 0.50144 1.12 1.12s-0.50144 1.12-1.12 1.12c-0.61856 0-1.12-0.50144-1.12-1.12s0.50144-1.12 1.12-1.12zm74.58-80.99c6.1133 4.1533 11.28 9.57 15.5 16.25-0.21333 1.2067 0.11333 3.21 0.98 6.01 0.61333 1.9733 1.1767 6.63 1.69 13.97-2.05-5.33-11.33-26.94-19.81-19.32-1.5067 1.36-2.73 3.2067-3.67 5.54-2.7667 6.8933-4.4867 14.477-5.16 22.75-0.98667 12.1-0.75667 23.727 0.69 34.88 0.013333 0.086667-0.016667 0.15333-0.09 0.2-1.1667 0.70667-2.59 1.3433-4.27 1.91-0.066667 0.02-0.10667-0.003333-0.12-0.07-3.4667-17.947-3.8367-35.517-1.11-52.71 1.69-10.59 5.33-21.44 12.88-29.16 0.66002-0.67517 1.7089-0.78048 2.49-0.25zm476.02 79.5c0.59094 0 1.07 0.47906 1.07 1.07 0 0.59094-0.47906 1.07-1.07 1.07-0.59094 0-1.07-0.47906-1.07-1.07 0-0.59094 0.47906-1.07 1.07-1.07zm-90.49-0.48c0.64065 0 1.16 0.51935 1.16 1.16 0 0.64065-0.51935 1.16-1.16 1.16s-1.16-0.51935-1.16-1.16c0-0.64065 0.51935-1.16 1.16-1.16zm-326.57-12.79c1.4267 1.2733 2.6633 2.8267 3.71 4.66-4.92 1.0533-8.8133 3.19-11.68 6.41l-5.87-4.24c-0.088415-0.065305-0.13712-0.17142-0.129-0.28104s0.071933-0.2074 0.169-0.25896l12.64-6.44c0.38081-0.19278 0.84075-0.1333 1.16 0.15zm-104.49 7.83c0.66274 0 1.2 0.53726 1.2 1.2 0 0.66274-0.53726 1.2-1.2 1.2s-1.2-0.53726-1.2-1.2c0-0.66274 0.53726-1.2 1.2-1.2zm207.46-91.03c36.09 43.06 88.95 72.71 145.78 72.63 19.64-0.03 38.9-5.05 56.35-14.16 1.16-0.60667 1.9567-0.29 2.39 0.95 0.10667 0.32667 0.006666 0.95333-0.3 1.88-1.9 5.68-6.98 10.41-11.84 13.8-30.16 21.03-68.35 21.21-102.03 8.49-23.53-8.88-44.24-23.6-62.57-41.43-3.82-3.7133-7.3167-7.5867-10.49-11.62l-17.29-30.54zm280.54 79.836c0.53541-0.13548 1.0979 0.26251 1.2565 0.88894 0.15851 0.62643-0.14703 1.2441-0.68244 1.3796-0.53541 0.13548-1.0979-0.26251-1.2565-0.88894-0.15851-0.62643 0.14703-1.2441 0.68244-1.3796zm-61.483-7.6957c0.75111 0 1.36 0.60889 1.36 1.36s-0.60889 1.36-1.36 1.36-1.36-0.60889-1.36-1.36 0.60889-1.36 1.36-1.36zm-93.5-343.31c29.57 6 56.79 19.76 79.67 39.72 19.5 17.02 34.28 39.98 43.08 64.23l-0.08-0.02c-2.6067-5.7333-4.4833-9.7-5.63-11.9-7.71-14.84-18.27-28.35-32.78-37.14-11.8-7.13-25.58-11.23-39.35-14.08-50.9-10.55-105.36-1.26-148.36 27.2-42.13 27.88-71.06 71.94-76.3 122.06-0.63333 6.0133-0.93 12.763-0.89 20.25 0.06 11.16 0.24667 21.433 0.56 30.82 0.086666 2.5467 0.8 5.13 2.14 7.75 16.46 32.16 43.29 61.51 73.13 81.68 2.9333 1.9867 5.8433 4.0233 8.73 6.11 0.6 0.42667 0.58 0.46-0.06 0.1-6.1267-3.4933-12.19-7.12-18.19-10.88-29.3-18.36-53.85-44.04-69.36-74.91-0.80667-1.6067-1.32-3.4367-1.54-5.49-1.208-11.376-1.2-22.982-1.1126-34.553l0.027452-3.4698c0.01378-1.7341 0.026788-3.4668 0.035188-5.1972 0.19-39.76 17.23-79.06 43.27-107.9 38.07-42.14 89.66-63.18 146.7-64.21 0.34-0.0066666 0.57333-0.17333 0.7-0.5 0.13333-0.36667 0.056666-0.7-0.23-1-0.19333-0.20667-0.42667-0.31333-0.7-0.32-58.73-1.95-113.05 21.06-152.12 64.42-6.7533 7.4933-12.763 15.75-18.03 24.77-0.26 0.45333-0.44 0.42333-0.54-0.09l-9.56-49.25c2.66-6.64 6.0567-12.053 10.19-16.24 3.7267-3.78 7.4767-7.64 11.25-11.58 0.4-0.41333 0.31667-0.67-0.25-0.77-0.3-0.06-0.60667 0.01-0.92 0.21-3.7 2.3133-7.1067 4.9867-10.22 8.02-4.4067 4.3-8.7567 8.5333-13.05 12.7-0.86 0.82667-2.4767 2.89-4.85 6.19-11.453 14.52-21.077 30.227-28.87 47.12-7.5 16.23-12.99 34.88-4.79 51.9 1.5955 3.315 3.7286 6.2669 5.9167 9.1671l1.012 1.3361c1.1812 1.5571 2.3567 3.1132 3.4512 4.7168 3.4067 4.9933 5.9567 10.47 7.65 16.43 5.2733 18.533 4.9533 36.467-0.96 53.8-0.026667 0.08-0.08 0.11-0.16 0.09l-0.27-0.08c-0.006667 0-0.01-0.003333-0.01-0.01 4.0067-15.167 3.7833-30.74-0.67-46.72-3.75-13.47-11.38-27.05-24.54-32.52-4.7933-1.9867-9.5733-2.3067-14.34-0.96-0.15855 0.043501-0.32836 0.006274-0.45417-0.099568-0.12581-0.10584-0.19155-0.26677-0.17812-0.43043 0.47563-4.7067 1.149-9.19 2.0223-13.45 8.77-42.69 29.89-82.24 61.98-111.23 27.973-25.267 60.593-41.007 97.86-47.22 26.713-4.4533 53.377-3.9767 79.99 1.43zm66.33 75.66c5.18 1.02 11.08 2.48 17.7 4.38 1.2467 0.35333 2.2433 1.0133 2.99 1.98 17.09 22.07 30.89 45.98 38.48 72.45 4.42 15.453 6.79 30.41 7.11 44.87 1.03 46.61-20.78 91.35-58.82 118.42-12.06 8.58-26.44 13.09-41.07 15.93-1.76 0.34-1.8333 0.12-0.22-0.66 3.0933-1.5067 6.2567-3.1567 9.49-4.95 2.8533-1.5933 6.2833-4.08 10.29-7.46 12.78-8.0467 23.813-17.19 33.1-27.43 20.36-22.46 31.957-48.73 34.79-78.81 0.58667-6.2933 0.68333-12.907 0.29-19.84-1.77-30.86-12.75-60.27-29.53-86.31-3.54-5.5-7.78-11.55-12.72-18.15-3.62-4.84-7.58-9.6467-11.88-14.42zm-403.24 246.28c0.14837 0.002289 0.27919 0.097849 0.32646 0.2385l0.98 2.73c0.037789 0.093895 0.11437 0.16683 0.21 0.2l2.7 1.05c0.13916 0.05151 0.23071 0.18517 0.2285 0.33354-0.0022885 0.14837-0.097848 0.27919-0.2385 0.32646l-2.73 0.98c-0.093895 0.037789-0.16683 0.11438-0.2 0.21l-1.05 2.7c-0.05151 0.13916-0.18517 0.23071-0.33354 0.2285-0.14837-0.002288-0.27919-0.097848-0.32646-0.2385l-0.98-2.73c-0.037789-0.093895-0.11437-0.16683-0.21-0.2l-2.7-1.05c-0.13916-0.05151-0.23071-0.18517-0.2285-0.33354 0.0022885-0.14837 0.097848-0.27919 0.2385-0.32646l2.73-0.98c0.093895-0.037789 0.16683-0.11437 0.2-0.21l1.05-2.7c0.05151-0.13916 0.18517-0.23071 0.33354-0.2285zm509.91-0.46402c0.22098 0.004556 0.41387 0.15093 0.47773 0.36252l0.77 2.61c0.045479 0.15837 0.16467 0.28502 0.32 0.34l2.57 0.9c0.20878 0.072533 0.34708 0.27129 0.34252 0.49227s-0.15093 0.41387-0.36252 0.47773l-2.61 0.77c-0.15837 0.045479-0.28502 0.16467-0.34 0.32l-0.9 2.57c-0.072533 0.20878-0.27129 0.34708-0.49227 0.34252-0.22098-0.004557-0.41387-0.15093-0.47773-0.36252l-0.77-2.61c-0.045479-0.15837-0.16467-0.28501-0.32-0.34l-2.57-0.9c-0.20878-0.072533-0.34708-0.27129-0.34252-0.49227 0.004556-0.22098 0.15093-0.41387 0.36252-0.47773l2.61-0.77c0.15837-0.045479 0.28501-0.16467 0.34-0.32l0.9-2.57c0.072533-0.20878 0.27129-0.34708 0.49227-0.34252zm-531.5 6.8987c0.51996-0.18617 1.112 0.13921 1.3224 0.72677s-0.040593 1.2148-0.56055 1.401c-0.51996 0.18617-1.112-0.13921-1.3224-0.72677-0.21038-0.58755 0.040593-1.2148 0.56055-1.401zm-6.5591-12.626c0.60199 0 1.09 0.48801 1.09 1.09 0 0.60199-0.48801 1.09-1.09 1.09-0.60199 0-1.09-0.48801-1.09-1.09 0-0.60199 0.48801-1.09 1.09-1.09zm477.38 0.33587c0.18532 0.65928-0.11702 1.3209-0.67528 1.4779s-1.1611-0.25032-1.3464-0.90961c-0.18532-0.65928 0.11702-1.3209 0.67528-1.4779 0.55826-0.15692 1.1611 0.25032 1.3464 0.90961zm-384.23-30.856 55.81 5.85c0.091187 0.010847 0.17284 0.061554 0.22159 0.1376 0.04875 0.076049 0.059217 0.16906 0.028406 0.2524l-9.29 24.39-30.39-2.29c-4.0133-10.013-9.5433-19.327-16.59-27.94-0.25333-0.30667-0.18333-0.44 0.21-0.4zm404.64 23.28c1.2703 0 2.3 1.0297 2.3 2.3s-1.0297 2.3-2.3 2.3-2.3-1.0297-2.3-2.3 1.0297-2.3 2.3-2.3zm-201.16-26.2c18.347 12.893 38.303 22.623 59.87 29.19 0.08 0.02 0.11 0.073334 0.09 0.16h-0.01c-0.006667 0.04-0.033334 0.056667-0.08 0.05-15.693-3.3333-30.763-8.69-45.21-16.07-4.94-2.52-11.13-6.0133-18.57-10.48-0.043089-0.028409-0.069828-0.075857-0.07193-0.12743-0.001865-0.051573 0.021151-0.10094 0.06193-0.13257l3.44-2.58c0.14316-0.10806 0.33765-0.11211 0.48-0.01zm256.24 19.27c1.0604 0 1.92 0.85961 1.92 1.92s-0.85961 1.92-1.92 1.92-1.92-0.85961-1.92-1.92 0.85961-1.92 1.92-1.92zm-22.911-0.44418c0.54617-0.21075 1.1952 0.15306 1.4497 0.81258 0.25449 0.65953 0.018036 1.365-0.52814 1.5758-0.54617 0.21075-1.1952-0.15306-1.4497-0.81258-0.25449-0.65953-0.018036-1.365 0.52814-1.5758zm-376.1-31.626c12.23 13.42 26.89 23.61 43.13 31.9 0.093333 0.053334 0.12 0.12667 0.08 0.22v0.01c-0.033334 0.073334-0.086667 0.096667-0.16 0.07-18.62-6.39-38.11-14.38-51.15-30.06-0.29333-0.35333-0.21-0.52667 0.25-0.52 2.3467 0.066667 4.54-0.53 6.58-1.79 0.47333-0.29333 0.89667-0.23667 1.27 0.17zm349.09 17.68c0.66274 0 1.2 0.53726 1.2 1.2 0 0.66274-0.53726 1.2-1.2 1.2s-1.2-0.53726-1.2-1.2c0-0.66274 0.53726-1.2 1.2-1.2zm-286.62-110.06c12.28 32.447 31.017 60.843 56.21 85.19 5.64 5.4533 10.82 10 15.54 13.64 0.61333 0.47333 0.58 0.89333-0.1 1.26l-1.93 1.05c-0.70681 0.38404-1.5785 0.28408-2.18-0.25l-1.2703-1.126-2.546-2.2481c-4.6681-4.121-9.3173-8.2538-13.584-12.646-23.427-24.093-40.197-52.35-50.31-84.77 0.053333-0.033333 0.11-0.066666 0.17-0.1zm-211.66 99.03c0.6296 0 1.14 0.5104 1.14 1.14 0 0.6296-0.5104 1.14-1.14 1.14s-1.14-0.5104-1.14-1.14c0-0.6296 0.5104-1.14 1.14-1.14zm506.89-4.35c0.85052 0 1.54 0.68948 1.54 1.54 0 0.85052-0.68948 1.54-1.54 1.54-0.85052 0-1.54-0.68948-1.54-1.54 0-0.85052 0.68948-1.54 1.54-1.54zm-472.96-0.31859c0.55636-0.1992 1.1915 0.15355 1.4186 0.7879s-0.03976 1.3101-0.59612 1.5093c-0.55636 0.1992-1.1915-0.15355-1.4186-0.7879-0.22713-0.63435 0.03976-1.3101 0.59612-1.5093zm503.48-3.3714c0.57438 0 1.04 0.46562 1.04 1.04s-0.46562 1.04-1.04 1.04-1.04-0.46562-1.04-1.04 0.46562-1.04 1.04-1.04zm-485.97-1.41c0.64065 0 1.16 0.51935 1.16 1.16 0 0.64065-0.51935 1.16-1.16 1.16s-1.16-0.51935-1.16-1.16c0-0.64065 0.51935-1.16 1.16-1.16zm470.26-12.563c0.20635 0.006803 0.38524 0.1448 0.4442 0.34267l0.73 2.27c0.043728 0.13687 0.14647 0.24695 0.28 0.3l2.23 0.85c0.19356 0.071863 0.31947 0.25945 0.31267 0.4658-0.006803 0.20635-0.1448 0.38524-0.34267 0.4442l-2.27 0.73c-0.13687 0.043728-0.24695 0.14647-0.3 0.28l-0.85 2.23c-0.071863 0.19356-0.25945 0.31947-0.4658 0.31267-0.20635-0.006803-0.38524-0.1448-0.4442-0.34267l-0.73-2.27c-0.043728-0.13687-0.14647-0.24695-0.28-0.3l-2.23-0.85c-0.19356-0.071862-0.31947-0.25945-0.31267-0.4658s0.1448-0.38524 0.34267-0.4442l2.27-0.73c0.13687-0.043728 0.24695-0.14647 0.3-0.28l0.85-2.23c0.071862-0.19356 0.25945-0.31947 0.4658-0.31267zm-527.99-3.9428c0.14358 0.004487 0.26885 0.098725 0.31296 0.23544l0.91 2.57c0.032228 0.090519 0.10125 0.16318 0.19 0.2l2.53 1.04c0.13369 0.052559 0.21992 0.18347 0.21543 0.32704-0.0044868 0.14358-0.098725 0.26885-0.23543 0.31296l-2.57 0.91c-0.090519 0.032228-0.16318 0.10125-0.2 0.19l-1.04 2.53c-0.052558 0.13369-0.18347 0.21992-0.32704 0.21544s-0.26885-0.098725-0.31296-0.23544l-0.91-2.57c-0.032228-0.090519-0.10125-0.16318-0.19-0.2l-2.53-1.04c-0.13369-0.052558-0.21992-0.18346-0.21543-0.32704 0.0044869-0.14358 0.098725-0.26885 0.23543-0.31296l2.57-0.91c0.090519-0.032228 0.16318-0.10125 0.2-0.19l1.04-2.53c0.052559-0.13369 0.18347-0.21992 0.32704-0.21544zm148.33-8.9846 10.4 3.4c0.13212 0.045272 0.24048 0.14179 0.30067 0.26781 0.060192 0.12603 0.067158 0.27097 0.01933 0.40219l-0.1 0.29c-0.17333 0.48667-0.51333 0.66667-1.02 0.54l-8.09-2.09c-0.43333-0.11333-0.75 0.033334-0.95 0.44-1.02 2.05-1.69 4.33-2.86 6.34-1.9933 3.44-4.95 5.8633-8.87 7.27-0.093334 0.033334-0.16 0.003334-0.2-0.09v-0.01c-0.053334-0.12-0.02-0.21 0.1-0.27 6.25-3.16 8.75-9.7 10.55-16.1 0.10667-0.38667 0.34667-0.51667 0.72-0.39zm-49.53 14.31c0.67379 0 1.22 0.54621 1.22 1.22 0 0.67379-0.54621 1.22-1.22 1.22-0.67379 0-1.22-0.54621-1.22-1.22 0-0.67379 0.54621-1.22 1.22-1.22zm457.13-8.8c0.61304 0 1.11 0.49696 1.11 1.11s-0.49696 1.11-1.11 1.11-1.11-0.49696-1.11-1.11 0.49696-1.11 1.11-1.11zm-528.63-9.8856c0.07745 0.005957 0.14723 0.049031 0.18726 0.1156l1.21 1.98c0.14 0.22667 0.15 0.46 0.03 0.7l-1.2 2.34c-0.24 0.47333-0.47 0.47-0.69-0.01-0.32-0.71333-0.75667-1.37-1.31-1.97-0.37333-0.4-0.38333-0.81-0.03-1.23l1.6-1.84c0.049745-0.059661 0.12529-0.091556 0.20274-0.085598zm116.02-49.104c3.32 4.4667 5.5067 9.62 6.56 15.46 1.7333 9.6067 1.9567 19.567 0.67 29.88-0.047295 0.34137 0.15394 0.66838 0.48 0.78 2.68 0.94667 5.5267 1.6 8.54 1.96 0.81333 0.1 1.1967 0.55667 1.15 1.37l-0.04 0.84c-0.046667 0.84-0.48333 1.1833-1.31 1.03-3.4733-0.63333-7.01-1.5767-10.61-2.83-0.79333-0.28-1.1233-0.83333-0.99-1.66 1.83-11.69-1.18-25.09-6.13-35.57-2.73-5.78-7.76-13.09-13.8-14.99-1.7-0.54-1.7-1.08 0-1.62 6.2067-1.98 11.367-0.19667 15.48 5.35zm-129.91 47.01c0.59094 0 1.07 0.47906 1.07 1.07 0 0.59094-0.47906 1.07-1.07 1.07s-1.07-0.47906-1.07-1.07c0-0.59094 0.47906-1.07 1.07-1.07zm70.235-4.6511c0.41309 0.4604 0.42806 1.1207 0.033433 1.4747-0.39463 0.35408-1.0494 0.26789-1.4625-0.19251-0.41309-0.4604-0.42806-1.1207-0.033433-1.4747 0.39463-0.35408 1.0494-0.26789 1.4625 0.19251zm469.81-7.4178c0.44643-0.46716 1.2388-0.43448 1.7699 0.073002 0.53105 0.50748 0.59964 1.2976 0.15321 1.7647s-1.2388 0.43448-1.7699-0.073002c-0.53105-0.50748-0.59964-1.2976-0.15321-1.7647zm-428.37-32.241c5.85 2.65 10.25 11.73 12.15 17.66-1.1733-1.1267-2.1733-2.4733-3-4.04-1.18-2.2533-2.03-3.6633-2.55-4.23-3.1733-3.4667-7.3-4.7933-12.38-3.98-1.5 0.24-2.9767 1.8133-4.43 4.72 0.42-3.3733 1.6267-6.2733 3.62-8.7 1.7667-2.14 3.9633-2.6167 6.59-1.43zm405.35 3.76c0.64065 0 1.16 0.51935 1.16 1.16 0 0.64065-0.51935 1.16-1.16 1.16s-1.16-0.51935-1.16-1.16c0-0.64065 0.51935-1.16 1.16-1.16zm-497.24-7.15c1.1267 0 2.04 0.91334 2.04 2.04s-0.91334 2.04-2.04 2.04-2.04-0.91334-2.04-2.04 0.91334-2.04 2.04-2.04zm60.83-2.26c0.64065 0 1.16 0.51935 1.16 1.16 0 0.64065-0.51935 1.16-1.16 1.16s-1.16-0.51935-1.16-1.16c0-0.64065 0.51935-1.16 1.16-1.16zm-85.38-1.78c0.61856 0 1.12 0.50144 1.12 1.12s-0.50144 1.12-1.12 1.12-1.12-0.50144-1.12-1.12 0.50144-1.12 1.12-1.12zm54.28-16.78c0.61304 0 1.11 0.49696 1.11 1.11s-0.49696 1.11-1.11 1.11-1.11-0.49696-1.11-1.11 0.49696-1.11 1.11-1.11zm464.65-8.32c0.70692 0 1.28 0.57308 1.28 1.28 0 0.70692-0.57308 1.28-1.28 1.28-0.70692 0-1.28-0.57308-1.28-1.28 0-0.70692 0.57308-1.28 1.28-1.28zm-511.21-9.58c1.1101 0 2.01 0.89991 2.01 2.01 0 1.1101-0.89991 2.01-2.01 2.01-1.1101 0-2.01-0.89991-2.01-2.01 0-1.1101 0.89991-2.01 2.01-2.01zm540.47-5.33c1.1377 0 2.06 0.92229 2.06 2.06 0 1.1377-0.92229 2.06-2.06 2.06-1.1377 0-2.06-0.92229-2.06-2.06 0-1.1377 0.92229-2.06 2.06-2.06zm-459.24-12.872c0.13865 0.002279 0.26111 0.090957 0.3065 0.22199l1.53 4.59c0.030689 0.097112 0.1045 0.17461 0.2 0.21l4.55 1.65c0.1295 0.04959 0.21418 0.17485 0.21199 0.3135-0.002279 0.13865-0.090957 0.26111-0.22199 0.3065l-4.59 1.53c-0.097112 0.03069-0.17461 0.1045-0.21 0.2l-1.65 4.55c-0.04959 0.1295-0.17485 0.21418-0.3135 0.21199-0.13865-0.00228-0.26111-0.090958-0.3065-0.22199l-1.53-4.59c-0.030689-0.097112-0.1045-0.17461-0.2-0.21l-4.55-1.65c-0.1295-0.049589-0.21418-0.17485-0.21199-0.3135 0.0022796-0.13865 0.090958-0.26111 0.22199-0.3065l4.59-1.53c0.097112-0.030689 0.17461-0.1045 0.21-0.2l1.65-4.55c0.04959-0.1295 0.17485-0.21418 0.3135-0.21199zm-94.287 6.1122 0.39774 0.042506c0.90611 0.096835 1.5622 0.90988 1.4653 1.816l-0.080761 0.7557c-0.096835 0.90611-0.90988 1.5622-1.816 1.4653l-0.39774-0.042506c-0.90611-0.096835-1.5622-0.90988-1.4653-1.816l0.080761-0.7557c0.096835-0.90611 0.90988-1.5622 1.816-1.4653zm56.373-8.2902c0.64617 0 1.17 0.52383 1.17 1.17s-0.52383 1.17-1.17 1.17c-0.64617 0-1.17-0.52383-1.17-1.17s0.52383-1.17 1.17-1.17zm49.46-14.84c1.0272 0 1.86 0.83275 1.86 1.86 0 1.0272-0.83275 1.86-1.86 1.86-1.0272 0-1.86-0.83275-1.86-1.86 0-1.0272 0.83275-1.86 1.86-1.86zm421.37-19.397c0.13863 0 0.26247 0.086639 0.31 0.21686l1.72 4.61c0.033269 0.093306 0.10669 0.16673 0.2 0.2l4.61 1.72c0.13022 0.047527 0.21686 0.17137 0.21686 0.31s-0.086639 0.26247-0.21686 0.31l-4.61 1.72c-0.093306 0.03327-0.16673 0.1067-0.2 0.2l-1.72 4.61c-0.047527 0.13022-0.17137 0.21686-0.31 0.21686s-0.26247-0.086638-0.31-0.21686l-1.72-4.61c-0.03327-0.093305-0.1067-0.16673-0.2-0.2l-4.61-1.72c-0.13022-0.047526-0.21686-0.17137-0.21686-0.31s0.086638-0.26247 0.21686-0.31l4.61-1.72c0.093305-0.033269 0.16673-0.10669 0.2-0.2l1.72-4.61c0.047526-0.13022 0.17137-0.21686 0.31-0.21686zm-492.53-7.7363c0.1361 0 0.25515 0.091622 0.29 0.22319l2.14 6.94c0.029085 0.095883 0.10412 0.17092 0.2 0.2l6.94 2.14c0.13157 0.034848 0.22319 0.1539 0.22319 0.29s-0.091623 0.25515-0.22319 0.29l-6.94 2.14c-0.095882 0.029085-0.17092 0.10412-0.2 0.2l-2.14 6.94c-0.034848 0.13157-0.1539 0.22319-0.29 0.22319s-0.25515-0.091623-0.29-0.22319l-2.14-6.94c-0.029085-0.095882-0.10412-0.17092-0.2-0.2l-6.94-2.14c-0.13157-0.034847-0.22319-0.1539-0.22319-0.29s0.091622-0.25515 0.22319-0.29l6.94-2.14c0.095882-0.029084 0.17092-0.10412 0.2-0.2l2.14-6.94c0.034848-0.13157 0.1539-0.22319 0.29-0.22319zm29.711 16.488c0.61155 0.33204 0.88727 1.0065 0.61584 1.5064-0.27143 0.49992-0.98723 0.63601-1.5988 0.30396s-0.88727-1.0065-0.61584-1.5064c0.27143-0.49992 0.98723-0.63601 1.5988-0.30396zm17.289-17.155c0.6296 0 1.14 0.5104 1.14 1.14 0 0.6296-0.5104 1.14-1.14 1.14s-1.14-0.5104-1.14-1.14c0-0.6296 0.5104-1.14 1.14-1.14zm38.02-93.65c0.17333 0.16 0.24667 0.36333 0.22 0.61-0.026667 0.26667-0.016667 0.53333 0.03 0.8 4.79 26.68 20.52 48.29 42.49 63.98 0.11304 0.079468 0.18726 0.20297 0.2044 0.34007 0.017138 0.13711-0.024408 0.27508-0.1144 0.37993-7.06 7.9533-13.383 16.44-18.97 25.46-0.15242 0.23953-0.40208 0.40018-0.68188 0.43878-0.2798 0.038594-0.56104-0.048832-0.76812-0.23878-25.83-23.5-32.72-58.65-23.02-91.62 0.11333-0.38667 0.31667-0.43667 0.61-0.15zm390.78 86.91c0.92784 0 1.68 0.75216 1.68 1.68 0 0.92784-0.75216 1.68-1.68 1.68-0.92784 0-1.68-0.75216-1.68-1.68 0-0.92784 0.75216-1.68 1.68-1.68zm-420.63-14.169c0.13378 0 0.25345 0.083223 0.3 0.20864l1.2 2.99c0.032527 0.08231 0.09769 0.14747 0.18 0.18l2.99 1.2c0.12542 0.046555 0.20864 0.16622 0.20864 0.3 0 0.13378-0.083224 0.25345-0.20864 0.3l-2.99 1.2c-0.08231 0.032527-0.14747 0.09769-0.18 0.18l-1.2 2.99c-0.046554 0.12542-0.16622 0.20864-0.3 0.20864-0.13378 0-0.25345-0.083224-0.3-0.20864l-1.2-2.99c-0.032527-0.08231-0.09769-0.14747-0.18-0.18l-2.99-1.2c-0.12542-0.046554-0.20864-0.16622-0.20864-0.3 0-0.13378 0.083224-0.25344 0.20864-0.3l2.99-1.2c0.08231-0.032526 0.14747-0.09769 0.18-0.18l1.2-2.99c0.046554-0.12542 0.16622-0.20864 0.3-0.20864zm423.95-6.8914c0.56885 0 1.03 0.46115 1.03 1.03s-0.46115 1.03-1.03 1.03-1.03-0.46115-1.03-1.03 0.46115-1.03 1.03-1.03zm-444.15-15.26c0.60199 0 1.09 0.48801 1.09 1.09s-0.48801 1.09-1.09 1.09-1.09-0.48801-1.09-1.09 0.48801-1.09 1.09-1.09zm321.45-12.702c-0.7894 0.30144-1.1418 1.2987-0.7872 2.2274s1.2821 1.4372 2.0715 1.1358c0.7894-0.30144 1.1418-1.2987 0.7872-2.2274-0.35464-0.9287-1.2821-1.4372-2.0715-1.1358zm-12.868-1.5684c-0.93336 0-1.69 0.75664-1.69 1.69s0.75664 1.69 1.69 1.69 1.69-0.75664 1.69-1.69-0.75664-1.69-1.69-1.69zm113.15-3.09c1.1598 0 2.1 0.9402 2.1 2.1s-0.9402 2.1-2.1 2.1-2.1-0.9402-2.1-2.1 0.9402-2.1 2.1-2.1zm17.28-11.05c0.65722 0 1.19 0.53278 1.19 1.19 0 0.65722-0.53278 1.19-1.19 1.19s-1.19-0.53278-1.19-1.19c0-0.65722 0.53278-1.19 1.19-1.19zm-54.78-8.35c1.0825 0 1.96 0.87752 1.96 1.96s-0.87752 1.96-1.96 1.96-1.96-0.87752-1.96-1.96 0.87752-1.96 1.96-1.96zm25.42-2.71c0.61856 0 1.12 0.50144 1.12 1.12s-0.50144 1.12-1.12 1.12-1.12-0.50144-1.12-1.12 0.50144-1.12 1.12-1.12zm-302.99-1.94c0.64065 0 1.16 0.51935 1.16 1.16s-0.51935 1.16-1.16 1.16-1.16-0.51935-1.16-1.16 0.51935-1.16 1.16-1.16zm-88.439-1.5436c0.91017 0.18022 1.4819 1.1652 1.277 2.1999-0.20489 1.0348-1.1088 1.7275-2.019 1.5473s-1.4819-1.1652-1.277-2.1999c0.20489-1.0348 1.1088-1.7275 2.019-1.5473zm68.679-5.3264c0.64065 0 1.16 0.51935 1.16 1.16s-0.51935 1.16-1.16 1.16-1.16-0.51935-1.16-1.16 0.51935-1.16 1.16-1.16zm62.38-12.84c0.64617 0 1.17 0.52383 1.17 1.17 0 0.64617-0.52383 1.17-1.17 1.17s-1.17-0.52383-1.17-1.17c0-0.64617 0.52383-1.17 1.17-1.17zm207.13-2.95c0.60751 0 1.1 0.49249 1.1 1.1s-0.49249 1.1-1.1 1.1-1.1-0.49249-1.1-1.1 0.49249-1.1 1.1-1.1zm-236.18-0.41c0.61856 0 1.12 0.50144 1.12 1.12s-0.50144 1.12-1.12 1.12-1.12-0.50144-1.12-1.12 0.50144-1.12 1.12-1.12zm82.94-9.49c0.17333 0.04 0.28333 0.14667 0.33 0.32 0.55 2.14 0.93 2.84 3.07 3.58 2.0067 0.69333 1.9667 1.26-0.12 1.7-1.3933 0.29333-2.2567 1.22-2.59 2.78-0.019854 0.08595-0.057148 0.17071-0.11 0.25-0.30667 0.49333-0.57 0.65333-0.79 0.48-0.46-0.38-1.03-2.15-1.55-2.79-0.30926-0.3779-0.77209-0.58895-1.25-0.57-0.37333 0.013333-0.72-0.066667-1.04-0.24-1.1533-0.63333-1.09-1.0933 0.19-1.38 1.96-0.44 3.0767-1.64 3.35-3.6 0.04-0.25333 0.17667-0.42667 0.41-0.52 0.033333-0.013333 0.066666-0.016667 0.1-0.01zm103.93-6.6902c0.1435 0.0022841 0.27015 0.094396 0.31648 0.23023l1.48 4.33c0.034112 0.098488 0.11151 0.17589 0.21 0.21l4.33 1.51c0.13432 0.050557 0.22243 0.18001 0.22023 0.32352-0.002284 0.1435-0.094396 0.27015-0.23023 0.31648l-4.33 1.48c-0.098488 0.034112-0.17589 0.11151-0.21 0.21l-1.51 4.33c-0.050557 0.13432-0.18001 0.22243-0.32352 0.22023-0.1435-0.002284-0.27014-0.094396-0.31648-0.23023l-1.48-4.33c-0.034112-0.098488-0.11151-0.17589-0.21-0.21l-4.33-1.51c-0.13432-0.050557-0.22243-0.18001-0.22023-0.32352 0.002284-0.1435 0.094395-0.27015 0.23023-0.31648l4.33-1.48c0.098488-0.034112 0.17589-0.11151 0.21-0.21l1.51-4.33c0.050557-0.13432 0.18001-0.22243 0.32352-0.22023zm-75.374 9.8602c0.64617 0 1.17 0.52383 1.17 1.17 0 0.64617-0.52383 1.17-1.17 1.17s-1.17-0.52383-1.17-1.17c0-0.64617 0.52383-1.17 1.17-1.17zm23.354-0.9592c0.60714-0.021202 1.1198 0.54776 1.145 1.2708 0.025249 0.72305-0.44647 1.3264-1.0536 1.3476s-1.1198-0.54776-1.145-1.2708c-0.02525-0.72305 0.44647-1.3264 1.0536-1.3476zm-80.404-0.7808c0.59647 0 1.08 0.48353 1.08 1.08s-0.48353 1.08-1.08 1.08c-0.59647 0-1.08-0.48353-1.08-1.08s0.48353-1.08 1.08-1.08z" fill="#00AD97"/>
</g>
</g>
</svg>
