<?xml version="1.0" encoding="UTF-8"?>
<svg version="1.1" viewBox="0 0 759 74" xmlns="http://www.w3.org/2000/svg">
<title>AstroPress</title>
<g fill="none" fill-rule="evenodd">
<g transform="translate(.8 .5)" fill="currentColor" fill-rule="nonzero">
<path id="Path" d="m74.1 21.9c0-13.2-5.7-21-14.1-21-13.6 0-20.2 9.1-30.4 24.9l-29.6 45.7h14.8l29.6-45.7c2.3-3.7 7.4-12.5 13.1-12.5 3.4 0 4.2 3.4 4.2 8.6v49.6h12.4v-49.6z"/>
<path id="Path" d="m104.7 1.3c-11.4 0-20.6 9.2-20.6 20.6 0 11.3 8.9 20.4 20.1 20.7h23.5c10.9 0 10.9 16.5 0 16.5h-38.8v12.4h38.8c11.4 0 20.7-9.3 20.7-20.7s-9.3-20.6-20.7-20.6h-23c-10.8 0-10.8-16.5 0-16.5h36.9v-12.4h-36.9z"/>
<polygon id="a" points="176.2 71.5 188.6 71.5 188.6 13.7 211.5 13.7 211.5 1.3 153.4 1.3 153.4 13.7 176.2 13.7"/>
<path d="m266.6 41.1c20.8-8.5 14.8-39.8-7.8-39.8h-37.3v12.4h37.3c10.9 0 10.9 16.5 0 16.5h-16.7c-11.4 0-20.6 9.2-20.6 20.6v20.7h12.4v-20.7c0-4.5 3.7-8.2 8.2-8.2h8.2c4.1 0 7.8 9.2 11.6 15.7l6.9 13.2h14l-16.2-30.4z"/>
<path id="Shape" d="m321.1 0.6c-19.8 0-35.8 16-35.8 35.8 0 19.7 16 35.8 35.8 35.8 19.7 0 35.8-16.1 35.8-35.8 0-19.8-16.1-35.8-35.8-35.8zm0 59.2c-12.8 0-23.4-10.7-23.4-23.5s10.6-23.3 23.4-23.3 23.4 10.5 23.4 23.3-10.6 23.5-23.4 23.5z"/>
<path id="Shape" d="m386.4 45.5h25.8c13.6 0 27.2-6.6 27.2-22.6 0-15.7-13.2-22.9-26.8-22.9h-42.7c-0.8 0-1.5 0.7-1.5 1.5v70c0 0.8 0.7 1.5 1.5 1.5h15c0.8 0 1.5-0.7 1.5-1.5v-26zm-1.5-1.5v27.5h-15v-70h42.7c15.2 0 25.3 8.5 25.3 21.4 0 13.1-10.3 21.1-25.7 21.1h-27.3zm0-15h26.9c6.7 0 11.1-2.2 11.1-6.2 0-3.9-4.4-6.3-10.9-6.3h-27.1v12.5zm1.5-11h25.6c2.9 0 9.4 0.8 9.4 4.8 0 4.2-6.6 4.7-9.6 4.7h-25.4v-9.5z"/>
<path id="Shape" d="m462.9 73c0.8 0 1.5-0.7 1.5-1.5v-35c0-11.3 8.2-18.5 19.4-18.5h31.1c0.8 0 1.5-0.7 1.5-1.5v-15c0-0.8-0.7-1.5-1.5-1.5h-31.7c-21.6 0-36.8 14.8-36.8 36.5v35c0 0.8 0.7 1.5 1.5 1.5h15zm-15-1.5v-35c0-20.6 14.2-35 35.3-35h31.7v15h-31.1c-12.6 0-20.9 8.4-20.9 20v35h-15z"/>
<path id="Shape" d="m589 73c0.8 0 1.5-0.7 1.5-1.5v-15c0-0.8-0.7-1.5-1.5-1.5h-30.9c-11.3 0-19.6-7.1-19.6-18.5 0-11.3 8.2-18.5 19.4-18.5 1.2 0 2.8-0.1 4.6 0 3.3 0 10.6 0.3 10.6 4.7 0 3.7-5.4 4.5-8.1 4.7-5 0.6-10.6 0.1-13 0.1-0.8 0-1.5 0.7-1.5 1.5v15c0 0.8 0.7 1.5 1.5 1.5h11.5c13.6 0 27.6-5.9 27.6-22.3 0-16-13.1-23.2-27.1-23.2h-6.7c-21.6 0-36.8 14.8-36.8 36.5 0 22 15.5 36.5 37.2 36.5h31.3zm-31.3-1.5c-21.3 0-35.7-14.3-35.7-35 0-20.6 14.2-35 35.3-35h6.7c15.6 0 25.6 8.5 25.6 21.7 0 13.4-10.4 20.8-26.1 20.8h-11.5v-15h11.5c6.7 0 11.1-2.4 11.1-6.3 0-3.7-4-6.2-10.7-6.2h-6c-12.6 0-20.9 8.4-20.9 20 0 11.7 8.4 20 21.1 20h30.9v15h-31.3z"/>
<path id="b" d="m649.4 73c13.5 0 25.2-7.7 25.2-22.6 0-14.7-11.1-22.9-24.8-22.9h-24.6c-3.9 0-7.6-1.5-7.6-4.7s3.5-4.8 7.4-4.8h24.2c3.9 0 7.4 1.6 7.4 4.8 0 0.8 0.7 1.5 1.5 1.5h15c0.8 0 1.5-0.7 1.5-1.5 0-14.7-11.2-22.8-24.8-22.8h-25.4c-13.7 0-24.8 8.2-24.8 22.9 0 14.9 11.7 22.6 25.2 22.6h24.4c3.9 0 7.4 1.6 7.4 4.8s-3.7 4.7-7.6 4.7h-24c-3.9 0-7.4-1.6-7.4-4.8 0-0.8-0.7-1.5-1.5-1.5h-15c-0.8 0-1.5 0.7-1.5 1.5 0 14.7 11.2 22.8 24.8 22.8h25zm-25-1.5c-14 0-23.3-8.5-23.3-21.3h15c0 3.8 3.6 6.3 8.9 6.3h24c5.5 0 9.1-2.5 9.1-6.2 0-3.8-3.6-6.3-8.9-6.3h-24.4c-14.2 0-23.7-8.4-23.7-21.1 0-12.8 9.3-21.4 23.3-21.4h25.4c14 0 23.3 8.5 23.3 21.3h-15c0-3.8-3.6-6.3-8.9-6.3h-24.2c-5.3 0-8.9 2.5-8.9 6.3 0 3.7 3.6 6.2 9.1 6.2h24.6c14 0 23.3 8.6 23.3 21.4 0 12.7-9.5 21.1-23.7 21.1h-25z"/>
<path d="m732.9 73c13.5 0 25.2-7.7 25.2-22.6 0-14.7-11.1-22.9-24.8-22.9h-24.6c-3.9 0-7.6-1.5-7.6-4.7s3.5-4.8 7.4-4.8h24.2c3.9 0 7.4 1.6 7.4 4.8 0 0.8 0.7 1.5 1.5 1.5h15c0.8 0 1.5-0.7 1.5-1.5 0-14.7-11.2-22.8-24.8-22.8h-25.4c-13.7 0-24.8 8.2-24.8 22.9 0 14.9 11.7 22.6 25.2 22.6h24.4c3.9 0 7.4 1.6 7.4 4.8s-3.7 4.7-7.6 4.7h-24c-3.9 0-7.4-1.6-7.4-4.8 0-0.8-0.7-1.5-1.5-1.5h-15c-0.8 0-1.5 0.7-1.5 1.5 0 14.7 11.2 22.8 24.8 22.8h25zm-25-1.5c-14 0-23.3-8.5-23.3-21.3h15c0 3.8 3.6 6.3 8.9 6.3h24c5.5 0 9.1-2.5 9.1-6.2 0-3.8-3.6-6.3-8.9-6.3h-24.4c-14.2 0-23.7-8.4-23.7-21.1 0-12.8 9.3-21.4 23.3-21.4h25.4c14 0 23.3 8.5 23.3 21.3h-15c0-3.8-3.6-6.3-8.9-6.3h-24.2c-5.3 0-8.9 2.5-8.9 6.3 0 3.7 3.6 6.2 9.1 6.2h24.6c14 0 23.3 8.6 23.3 21.4 0 12.7-9.5 21.1-23.7 21.1h-25z"/>
</g>
</g>
</svg>
